<svg id="visual" viewBox="0 0 900 600" width="900" height="600" xmlns="http://www.w3.org/2000/svg" xmlns:xlink="http://www.w3.org/1999/xlink" version="1.1"><g stroke-width="1" stroke-linejoin="bevel"><path d="M446 330L397 286L425 382Z" fill="#00101c" stroke="#00101c"></path><path d="M397 286L336 337L425 382Z" fill="#246688" stroke="#246688"></path><path d="M307 327L311 351L336 337Z" fill="#0c2435" stroke="#0c2435"></path><path d="M336 337L375 445L425 382Z" fill="#00101c" stroke="#00101c"></path><path d="M313 240L307 327L336 337Z" fill="#081a28" stroke="#081a28"></path><path d="M311 351L375 445L336 337Z" fill="#15384f" stroke="#15384f"></path><path d="M466 214L362 234L397 286Z" fill="#19435d" stroke="#19435d"></path><path d="M397 286L362 234L336 337Z" fill="#297ea6" stroke="#297ea6"></path><path d="M531 399L504 281L446 330Z" fill="#15384f" stroke="#15384f"></path><path d="M446 330L504 281L397 286Z" fill="#19435d" stroke="#19435d"></path><path d="M375 445L443 454L425 382Z" fill="#277297" stroke="#277297"></path><path d="M425 382L531 399L446 330Z" fill="#19435d" stroke="#19435d"></path><path d="M362 234L313 240L336 337Z" fill="#0c2435" stroke="#0c2435"></path><path d="M504 281L466 214L397 286Z" fill="#081a28" stroke="#081a28"></path><path d="M362 234L263 178L313 240Z" fill="#15384f" stroke="#15384f"></path><path d="M443 454L531 399L425 382Z" fill="#0c2435" stroke="#0c2435"></path><path d="M443 454L533 409L531 399Z" fill="#277297" stroke="#277297"></path><path d="M224 387L285 471L311 351Z" fill="#277297" stroke="#277297"></path><path d="M311 351L285 471L375 445Z" fill="#297ea6" stroke="#297ea6"></path><path d="M410 557L491 493L443 454Z" fill="#277297" stroke="#277297"></path><path d="M224 387L311 351L307 327Z" fill="#246688" stroke="#246688"></path><path d="M194 319L224 387L307 327Z" fill="#246688" stroke="#246688"></path><path d="M410 557L443 454L375 445Z" fill="#112e42" stroke="#112e42"></path><path d="M443 454L491 493L533 409Z" fill="#081a28" stroke="#081a28"></path><path d="M224 387L260 475L285 471Z" fill="#297ea6" stroke="#297ea6"></path><path d="M281 540L410 557L375 445Z" fill="#19435d" stroke="#19435d"></path><path d="M564 211L522 191L504 281Z" fill="#277297" stroke="#277297"></path><path d="M504 281L522 191L466 214Z" fill="#246688" stroke="#246688"></path><path d="M403 114L263 178L362 234Z" fill="#277297" stroke="#277297"></path><path d="M593 302L504 281L531 399Z" fill="#205a7a" stroke="#205a7a"></path><path d="M204 244L194 319L307 327Z" fill="#081a28" stroke="#081a28"></path><path d="M222 496L281 540L260 475Z" fill="#19435d" stroke="#19435d"></path><path d="M625 407L531 399L533 409Z" fill="#19435d" stroke="#19435d"></path><path d="M625 407L593 302L531 399Z" fill="#00101c" stroke="#00101c"></path><path d="M403 114L362 234L466 214Z" fill="#0c2435" stroke="#0c2435"></path><path d="M313 240L204 244L307 327Z" fill="#00101c" stroke="#00101c"></path><path d="M263 178L204 244L313 240Z" fill="#297ea6" stroke="#297ea6"></path><path d="M581 177L505 158L522 191Z" fill="#297ea6" stroke="#297ea6"></path><path d="M522 191L505 158L466 214Z" fill="#277297" stroke="#277297"></path><path d="M593 302L564 211L504 281Z" fill="#15384f" stroke="#15384f"></path><path d="M281 540L375 445L285 471Z" fill="#112e42" stroke="#112e42"></path><path d="M453 111L403 114L466 214Z" fill="#246688" stroke="#246688"></path><path d="M222 496L260 475L224 387Z" fill="#1d4e6b" stroke="#1d4e6b"></path><path d="M260 475L281 540L285 471Z" fill="#205a7a" stroke="#205a7a"></path><path d="M140 461L222 496L224 387Z" fill="#0c2435" stroke="#0c2435"></path><path d="M117 311L161 335L194 319Z" fill="#246688" stroke="#246688"></path><path d="M194 319L161 335L224 387Z" fill="#19435d" stroke="#19435d"></path><path d="M499 103L453 111L505 158Z" fill="#19435d" stroke="#19435d"></path><path d="M505 158L453 111L466 214Z" fill="#205a7a" stroke="#205a7a"></path><path d="M599 509L604 454L491 493Z" fill="#297ea6" stroke="#297ea6"></path><path d="M491 493L604 454L533 409Z" fill="#1d4e6b" stroke="#1d4e6b"></path><path d="M252 42L225 167L263 178Z" fill="#00101c" stroke="#00101c"></path><path d="M263 178L225 167L204 244Z" fill="#15384f" stroke="#15384f"></path><path d="M204 244L117 311L194 319Z" fill="#277297" stroke="#277297"></path><path d="M604 454L625 407L533 409Z" fill="#0c2435" stroke="#0c2435"></path><path d="M650 201L581 177L564 211Z" fill="#112e42" stroke="#112e42"></path><path d="M564 211L581 177L522 191Z" fill="#205a7a" stroke="#205a7a"></path><path d="M650 201L564 211L593 302Z" fill="#00101c" stroke="#00101c"></path><path d="M625 407L646 347L593 302Z" fill="#15384f" stroke="#15384f"></path><path d="M581 177L499 103L505 158Z" fill="#246688" stroke="#246688"></path><path d="M453 111L412 63L403 114Z" fill="#0c2435" stroke="#0c2435"></path><path d="M453 600L532 559L491 493Z" fill="#112e42" stroke="#112e42"></path><path d="M604 454L673 463L625 407Z" fill="#112e42" stroke="#112e42"></path><path d="M709 306L680 303L646 347Z" fill="#297ea6" stroke="#297ea6"></path><path d="M532 559L599 509L491 493Z" fill="#277297" stroke="#277297"></path><path d="M281 540L336 600L410 557Z" fill="#081a28" stroke="#081a28"></path><path d="M410 557L453 600L491 493Z" fill="#205a7a" stroke="#205a7a"></path><path d="M309 600L336 600L281 540Z" fill="#15384f" stroke="#15384f"></path><path d="M336 600L453 600L410 557Z" fill="#1d4e6b" stroke="#1d4e6b"></path><path d="M239 600L309 600L281 540Z" fill="#297ea6" stroke="#297ea6"></path><path d="M412 62L412 63L453 111Z" fill="#081a28" stroke="#081a28"></path><path d="M403 114L341 33L263 178Z" fill="#15384f" stroke="#15384f"></path><path d="M499 103L412 62L453 111Z" fill="#081a28" stroke="#081a28"></path><path d="M412 63L341 33L403 114Z" fill="#246688" stroke="#246688"></path><path d="M122 221L117 311L204 244Z" fill="#112e42" stroke="#112e42"></path><path d="M116 419L140 461L224 387Z" fill="#0c2435" stroke="#0c2435"></path><path d="M116 419L224 387L161 335Z" fill="#297ea6" stroke="#297ea6"></path><path d="M222 496L239 600L281 540Z" fill="#277297" stroke="#277297"></path><path d="M453 600L505 600L532 559Z" fill="#277297" stroke="#277297"></path><path d="M532 559L577 600L599 509Z" fill="#205a7a" stroke="#205a7a"></path><path d="M752 392L646 347L625 407Z" fill="#19435d" stroke="#19435d"></path><path d="M646 347L680 303L593 302Z" fill="#19435d" stroke="#19435d"></path><path d="M117 311L116 419L161 335Z" fill="#246688" stroke="#246688"></path><path d="M680 303L650 201L593 302Z" fill="#297ea6" stroke="#297ea6"></path><path d="M581 177L603 73L499 103Z" fill="#19435d" stroke="#19435d"></path><path d="M225 167L122 221L204 244Z" fill="#0c2435" stroke="#0c2435"></path><path d="M133 139L122 221L225 167Z" fill="#00101c" stroke="#00101c"></path><path d="M108 557L166 534L140 461Z" fill="#246688" stroke="#246688"></path><path d="M140 461L166 534L222 496Z" fill="#112e42" stroke="#112e42"></path><path d="M166 534L239 600L222 496Z" fill="#1d4e6b" stroke="#1d4e6b"></path><path d="M650 201L635 154L581 177Z" fill="#0c2435" stroke="#0c2435"></path><path d="M499 103L464 0L412 62Z" fill="#081a28" stroke="#081a28"></path><path d="M671 507L604 454L599 509Z" fill="#081a28" stroke="#081a28"></path><path d="M671 507L673 463L604 454Z" fill="#205a7a" stroke="#205a7a"></path><path d="M412 62L341 33L412 63Z" fill="#1d4e6b" stroke="#1d4e6b"></path><path d="M752 392L709 306L646 347Z" fill="#1d4e6b" stroke="#1d4e6b"></path><path d="M680 303L709 306L650 201Z" fill="#1d4e6b" stroke="#1d4e6b"></path><path d="M762 119L657 67L635 154Z" fill="#205a7a" stroke="#205a7a"></path><path d="M505 600L577 600L532 559Z" fill="#00101c" stroke="#00101c"></path><path d="M655 600L671 507L599 509Z" fill="#246688" stroke="#246688"></path><path d="M673 463L752 392L625 407Z" fill="#246688" stroke="#246688"></path><path d="M252 42L133 139L225 167Z" fill="#1d4e6b" stroke="#1d4e6b"></path><path d="M341 33L252 42L263 178Z" fill="#205a7a" stroke="#205a7a"></path><path d="M657 67L603 73L635 154Z" fill="#00101c" stroke="#00101c"></path><path d="M635 154L603 73L581 177Z" fill="#246688" stroke="#246688"></path><path d="M412 62L354 0L341 33Z" fill="#1d4e6b" stroke="#1d4e6b"></path><path d="M464 0L354 0L412 62Z" fill="#205a7a" stroke="#205a7a"></path><path d="M341 33L314 0L252 42Z" fill="#246688" stroke="#246688"></path><path d="M117 311L54 386L116 419Z" fill="#00101c" stroke="#00101c"></path><path d="M0 489L108 557L140 461Z" fill="#081a28" stroke="#081a28"></path><path d="M36 299L54 386L117 311Z" fill="#15384f" stroke="#15384f"></path><path d="M58 222L117 311L122 221Z" fill="#1d4e6b" stroke="#1d4e6b"></path><path d="M553 0L464 0L499 103Z" fill="#205a7a" stroke="#205a7a"></path><path d="M354 0L314 0L341 33Z" fill="#246688" stroke="#246688"></path><path d="M65 151L58 222L122 221Z" fill="#00101c" stroke="#00101c"></path><path d="M0 475L140 461L116 419Z" fill="#1d4e6b" stroke="#1d4e6b"></path><path d="M166 534L123 600L239 600Z" fill="#246688" stroke="#246688"></path><path d="M58 222L36 299L117 311Z" fill="#1d4e6b" stroke="#1d4e6b"></path><path d="M767 438L752 392L673 463Z" fill="#277297" stroke="#277297"></path><path d="M762 119L635 154L650 201Z" fill="#1d4e6b" stroke="#1d4e6b"></path><path d="M577 600L655 600L599 509Z" fill="#19435d" stroke="#19435d"></path><path d="M749 543L767 438L673 463Z" fill="#00101c" stroke="#00101c"></path><path d="M116 41L88 107L133 139Z" fill="#112e42" stroke="#112e42"></path><path d="M133 139L65 151L122 221Z" fill="#246688" stroke="#246688"></path><path d="M314 0L237 0L252 42Z" fill="#00101c" stroke="#00101c"></path><path d="M603 73L553 0L499 103Z" fill="#277297" stroke="#277297"></path><path d="M108 557L123 600L166 534Z" fill="#297ea6" stroke="#297ea6"></path><path d="M88 107L65 151L133 139Z" fill="#246688" stroke="#246688"></path><path d="M0 210L0 304L36 299Z" fill="#081a28" stroke="#081a28"></path><path d="M769 185L650 201L709 306Z" fill="#0c2435" stroke="#0c2435"></path><path d="M603 73L624 0L553 0Z" fill="#297ea6" stroke="#297ea6"></path><path d="M116 41L133 139L252 42Z" fill="#112e42" stroke="#112e42"></path><path d="M749 543L673 463L671 507Z" fill="#0c2435" stroke="#0c2435"></path><path d="M752 392L837 317L709 306Z" fill="#081a28" stroke="#081a28"></path><path d="M36 299L0 374L54 386Z" fill="#277297" stroke="#277297"></path><path d="M54 386L0 475L116 419Z" fill="#19435d" stroke="#19435d"></path><path d="M108 557L93 600L123 600Z" fill="#1d4e6b" stroke="#1d4e6b"></path><path d="M0 304L0 374L36 299Z" fill="#19435d" stroke="#19435d"></path><path d="M0 210L36 299L58 222Z" fill="#00101c" stroke="#00101c"></path><path d="M767 438L785 403L752 392Z" fill="#0c2435" stroke="#0c2435"></path><path d="M0 600L93 600L108 557Z" fill="#246688" stroke="#246688"></path><path d="M837 317L769 185L709 306Z" fill="#00101c" stroke="#00101c"></path><path d="M0 157L0 210L65 151Z" fill="#277297" stroke="#277297"></path><path d="M237 0L116 41L252 42Z" fill="#00101c" stroke="#00101c"></path><path d="M655 600L749 543L671 507Z" fill="#00101c" stroke="#00101c"></path><path d="M767 438L792 443L785 403Z" fill="#081a28" stroke="#081a28"></path><path d="M675 0L624 0L657 67Z" fill="#246688" stroke="#246688"></path><path d="M657 67L624 0L603 73Z" fill="#205a7a" stroke="#205a7a"></path><path d="M749 543L792 443L767 438Z" fill="#15384f" stroke="#15384f"></path><path d="M785 403L837 317L752 392Z" fill="#00101c" stroke="#00101c"></path><path d="M65 151L0 210L58 222Z" fill="#15384f" stroke="#15384f"></path><path d="M0 157L65 151L0 56Z" fill="#19435d" stroke="#19435d"></path><path d="M0 374L0 475L54 386Z" fill="#112e42" stroke="#112e42"></path><path d="M0 475L0 489L140 461Z" fill="#277297" stroke="#277297"></path><path d="M769 185L762 119L650 201Z" fill="#277297" stroke="#277297"></path><path d="M0 56L65 151L88 107Z" fill="#205a7a" stroke="#205a7a"></path><path d="M237 0L116 0L116 41Z" fill="#205a7a" stroke="#205a7a"></path><path d="M116 41L0 56L88 107Z" fill="#297ea6" stroke="#297ea6"></path><path d="M762 77L675 0L657 67Z" fill="#1d4e6b" stroke="#1d4e6b"></path><path d="M900 353L837 317L785 403Z" fill="#00101c" stroke="#00101c"></path><path d="M769 185L828 151L762 119Z" fill="#277297" stroke="#277297"></path><path d="M116 0L106 0L116 41Z" fill="#0c2435" stroke="#0c2435"></path><path d="M849 112L762 77L762 119Z" fill="#0c2435" stroke="#0c2435"></path><path d="M762 119L762 77L657 67Z" fill="#277297" stroke="#277297"></path><path d="M749 543L850 562L792 443Z" fill="#246688" stroke="#246688"></path><path d="M900 453L900 353L785 403Z" fill="#277297" stroke="#277297"></path><path d="M655 600L764 600L749 543Z" fill="#1d4e6b" stroke="#1d4e6b"></path><path d="M0 489L0 600L108 557Z" fill="#19435d" stroke="#19435d"></path><path d="M860 191L828 151L769 185Z" fill="#1d4e6b" stroke="#1d4e6b"></path><path d="M106 0L0 56L116 41Z" fill="#19435d" stroke="#19435d"></path><path d="M837 317L860 191L769 185Z" fill="#112e42" stroke="#112e42"></path><path d="M849 112L762 119L828 151Z" fill="#1d4e6b" stroke="#1d4e6b"></path><path d="M862 0L758 0L762 77Z" fill="#1d4e6b" stroke="#1d4e6b"></path><path d="M762 77L758 0L675 0Z" fill="#246688" stroke="#246688"></path><path d="M900 453L785 403L792 443Z" fill="#00101c" stroke="#00101c"></path><path d="M837 317L900 245L860 191Z" fill="#1d4e6b" stroke="#1d4e6b"></path><path d="M764 600L850 562L749 543Z" fill="#246688" stroke="#246688"></path><path d="M900 353L900 295L837 317Z" fill="#081a28" stroke="#081a28"></path><path d="M900 133L828 151L860 191Z" fill="#0c2435" stroke="#0c2435"></path><path d="M900 133L849 112L828 151Z" fill="#277297" stroke="#277297"></path><path d="M900 295L900 245L837 317Z" fill="#205a7a" stroke="#205a7a"></path><path d="M764 600L841 600L850 562Z" fill="#112e42" stroke="#112e42"></path><path d="M900 488L900 453L792 443Z" fill="#112e42" stroke="#112e42"></path><path d="M900 488L792 443L850 562Z" fill="#0c2435" stroke="#0c2435"></path><path d="M106 0L0 0L0 56Z" fill="#19435d" stroke="#19435d"></path><path d="M900 600L900 488L850 562Z" fill="#246688" stroke="#246688"></path><path d="M900 245L900 133L860 191Z" fill="#19435d" stroke="#19435d"></path><path d="M849 112L862 0L762 77Z" fill="#00101c" stroke="#00101c"></path><path d="M841 600L900 600L850 562Z" fill="#19435d" stroke="#19435d"></path><path d="M900 57L862 0L849 112Z" fill="#19435d" stroke="#19435d"></path><path d="M900 133L900 57L849 112Z" fill="#205a7a" stroke="#205a7a"></path><path d="M900 57L900 0L862 0Z" fill="#0c2435" stroke="#0c2435"></path></g></svg>